<?xml version="1.0" encoding="UTF-8"?>
<svg width="92px" height="94px" viewBox="0 0 92 94" version="1.1" xmlns="http://www.w3.org/2000/svg" xmlns:xlink="http://www.w3.org/1999/xlink">
    <!-- Generator: Sketch 46 (44423) - http://www.bohemiancoding.com/sketch -->
    <title>Logo</title>
    <desc>Created with Sketch.</desc>
    <defs></defs>
    <g id="Page-1" stroke="none" stroke-width="1" fill="none" fill-rule="evenodd">
        <g id="Logo" fill="#000000">
            <path d="M69.186318,46.8318234 L86.208151,46.8318234 C86.208151,22.4337019 66.3626168,2.65511655 41.8819098,2.65511655 C17.4012029,2.65511655 -2.44433129,22.4337019 -2.44433129,46.8318234 L14.5775017,46.8318234 C14.5771309,46.772965 14.5769453,46.7140625 14.5769453,46.6551165 C14.5769453,31.5282812 26.8017943,19.2655583 41.8819098,19.2655583 C56.9620254,19.2655583 69.1868744,31.5282812 69.1868744,46.6551165 C69.1868744,46.7140625 69.1866888,46.772965 69.186318,46.8318234 Z" id="Combined-Shape" transform="translate(41.881910, 24.743470) rotate(-25.000000) translate(-41.881910, -24.743470) "></path>
            <path d="M94.3682629,46.831319 C94.3691882,46.9490145 94.3696518,47.0668197 94.3696518,47.1847327 C94.3696518,71.5828542 74.5241176,91.3614395 50.0434106,91.3614395 C25.5627036,91.3614395 5.71716948,71.5828542 5.71716948,47.1847327 C5.71716948,47.0668197 5.71763301,46.9490145 5.71855834,46.831319 L22.7389628,46.831319 C22.8337646,61.8768316 35.022059,74.0441704 50.0434106,74.0441704 C65.0647622,74.0441704 77.2530567,61.8768316 77.3478188,46.8313191 L94.3682629,46.831319 Z" id="Combined-Shape" transform="translate(50.043411, 69.096379) rotate(-25.000000) translate(-50.043411, -69.096379) "></path>
        </g>
    </g>
</svg>