<?xml version="1.0" encoding="UTF-8"?>
<svg width="325px" height="76px" viewBox="0 0 325 76" version="1.1" xmlns="http://www.w3.org/2000/svg" xmlns:xlink="http://www.w3.org/1999/xlink">
    <!-- Generator: Sketch 50.2 (55047) - http://www.bohemiancoding.com/sketch -->
    <title>75</title>
    <desc>Created with Sketch.</desc>
    <defs></defs>
    <g id="Page-1" stroke="none" stroke-width="1" fill="none" fill-rule="evenodd">
        <g id="storyboard" transform="translate(-174.000000, -310.000000)">
            <g id="75" transform="translate(174.000000, 314.000000)">
                <g id="lock">
                    <path d="M11.25,27.1304348 L11.25,13.5 C11.25,6.04415588 17.2941559,-2.18309733e-15 24.75,-3.55271368e-15 L24.75,-3.55271368e-15 C32.2058441,-4.92233002e-15 38.25,6.04415588 38.25,13.5 L38.25,27.1304348 L11.25,27.1304348 Z" id="upper" stroke="#283A81" stroke-width="6.75"></path>
                    <rect id="body" fill="#3F5BC8" x="0" y="22.5" width="49.5" height="49.5" rx="6"></rect>
                    <g id="eye" transform="translate(9.000000, 36.000000)" fill="#8FA1E4">
                        <path d="M15.7499994,22.7093023 C20.3789508,22.7093023 25.3915426,19.5416593 30.787775,13.2063734 L30.7877741,13.2063726 C31.7209084,12.1108542 31.7171506,10.4989353 30.7789188,9.40777936 C25.3860582,3.13592645 20.3764184,0 15.7499994,0 C11.1235784,0 6.11393621,3.13592923 0.721072825,9.40778769 L0.721080518,9.40779431 C-0.21714807,10.4989469 -0.220905578,12.1108606 0.712225702,13.2063755 C6.10845735,19.5416601 11.1210486,22.7093023 15.7499994,22.7093023 Z" id="outer"></path>
                        <circle id="pupil" stroke="#FFFFFF" stroke-width="2.92108235" cx="15.75" cy="11.3546512" r="6.22674419"></circle>
                    </g>
                </g>
                <text id="iOSPriSec" font-family="IBMPlexMono-Bold, IBM Plex Mono" font-size="48" font-weight="bold" fill="#162047">
                    <tspan x="68.25" y="53.5">iOSPriSec</tspan>
                </text>
            </g>
        </g>
    </g>
</svg>