<?xml version="1.0" encoding="UTF-8"?>
<svg width="181px" height="159px" viewBox="0 0 181 159" version="1.1" xmlns="http://www.w3.org/2000/svg" xmlns:xlink="http://www.w3.org/1999/xlink">
    <!-- Generator: Sketch 49 (51002) - http://www.bohemiancoding.com/sketch -->
    <title>Export@1x</title>
    <desc>Created with Sketch.</desc>
    <defs></defs>
    <g id="Export" stroke="none" stroke-width="1" fill="none" fill-rule="evenodd">
        <g id="iOSPriSec" transform="translate(1.000000, 1.000000)">
            <path d="M8.43191269,137.601939 C7.32090707,137.601939 6.54876975,137.374186 6.11547756,136.918674 C5.68218537,136.463162 5.46554253,135.913222 5.46554253,135.268839 L5.46554253,134.302269 C5.46554253,133.635665 5.68218537,133.080171 6.11547756,132.635769 C6.54876975,132.191366 7.32090707,131.969169 8.43191269,131.969169 C9.54291831,131.969169 10.3150556,132.191366 10.7483478,132.635769 C11.18164,133.080171 11.3982829,133.635665 11.3982829,134.302269 L11.3982829,135.268839 C11.3982829,135.913222 11.18164,136.463162 10.7483478,136.918674 C10.3150556,137.374186 9.54291831,137.601939 8.43191269,137.601939 Z M0.499372253,153.16705 L5.96549255,153.16705 L5.96549255,143.634669 L0.499372253,143.634669 L0.499372253,139.801719 L10.8983328,139.801719 L10.8983328,153.16705 L15.9644931,153.16705 L15.9644931,157 L0.499372253,157 L0.499372253,153.16705 Z M27.8394966,157.39996 C24.7286809,157.39996 22.4344887,156.344521 20.9568512,154.23361 C19.4792138,152.122699 18.7404061,149.167469 18.7404061,145.367829 C18.7404061,141.56819 19.4792138,138.61296 20.9568512,136.502049 C22.4344887,134.391138 24.7286809,133.335699 27.8394966,133.335699 C30.9503123,133.335699 33.2445045,134.391138 34.722142,136.502049 C36.1997795,138.61296 36.9385871,141.56819 36.9385871,145.367829 C36.9385871,149.167469 36.1997795,152.122699 34.722142,154.23361 C33.2445045,156.344521 30.9503123,157.39996 27.8394966,157.39996 Z M27.8394966,153.36703 C29.2615838,153.36703 30.244809,152.83931 30.7892018,151.783855 C31.3335945,150.728399 31.6057868,149.256339 31.6057868,147.367629 L31.6057868,143.334699 C31.6057868,141.46821 31.3335945,140.007259 30.7892018,138.951804 C30.244809,137.896349 29.2615838,137.368629 27.8394966,137.368629 C26.4174094,137.368629 25.4341842,137.896349 24.8897915,138.951804 C24.3453987,140.007259 24.0732064,141.46821 24.0732064,143.334699 L24.0732064,147.400959 C24.0732064,149.267449 24.3453987,150.728399 24.8897915,151.783855 C25.4341842,152.83931 26.4174094,153.36703 27.8394966,153.36703 Z M47.9470106,157.39996 C45.9916407,157.39996 44.2918276,157.077773 42.8475203,156.43339 C41.403213,155.789007 40.2366746,154.911325 39.3478701,153.80032 L42.2475803,150.60064 C43.0919445,151.533884 44.0196203,152.222698 45.0306354,152.6671 C46.0416505,153.111502 47.0693153,153.3337 48.1136606,153.3337 C49.3135466,153.3337 50.2245576,153.067062 50.8467207,152.53378 C51.4688839,152.000497 51.7799608,151.233915 51.7799608,150.23401 C51.7799608,149.411865 51.5410982,148.789712 51.0633657,148.36753 C50.5856333,147.945347 49.7801663,147.64538 48.6469406,147.467619 L46.2138505,147.067659 C44.1251599,146.712138 42.6142149,145.94 41.6809702,144.751224 C40.7477255,143.562448 40.2811102,142.112608 40.2811102,140.401659 C40.2811102,138.157428 41.0143629,136.41873 42.4808903,135.185514 C43.9474177,133.952298 46.0027472,133.335699 48.6469406,133.335699 C50.4467697,133.335699 52.0132641,133.613446 53.3464709,134.168949 C54.6796776,134.724452 55.7573369,135.479924 56.579481,136.435389 L53.7464309,139.601739 C53.1242677,138.912916 52.391015,138.374086 51.5466508,137.985234 C50.7022865,137.596382 49.746836,137.401959 48.6802706,137.401959 C46.4360393,137.401959 45.3139404,138.32408 45.3139404,140.168349 C45.3139404,140.968273 45.5639129,141.568207 46.0638655,141.968169 C46.563818,142.368131 47.3803949,142.668098 48.5136206,142.868079 L50.9467107,143.301369 C52.8354203,143.634671 54.2908158,144.345704 55.312941,145.434489 C56.3350661,146.523275 56.8461211,147.98978 56.8461211,149.83405 C56.8461211,150.922835 56.6572529,151.92828 56.279511,152.850415 C55.9017691,153.772549 55.3351648,154.572461 54.5796809,155.250175 C53.8241971,155.927888 52.8965213,156.455608 51.7966258,156.83335 C50.6967302,157.211092 49.413538,157.39996 47.9470106,157.39996 Z M61.3218642,157 L61.3218642,133.735659 L70.3209647,133.735659 C71.4541904,133.735659 72.4651903,133.907862 73.3539948,134.252274 C74.2427993,134.596685 74.9927169,135.091076 75.60377,135.735459 C76.214823,136.379842 76.6758835,137.157534 76.986965,138.068559 C77.2980466,138.979584 77.4535851,140.001693 77.4535851,141.134919 C77.4535851,142.268145 77.2980466,143.290255 76.986965,144.201279 C76.6758835,145.112304 76.214823,145.889996 75.60377,146.534379 C74.9927169,147.178763 74.2427993,147.673153 73.3539948,148.017565 C72.4651903,148.361976 71.4541904,148.53418 70.3209647,148.53418 L66.3546944,148.53418 L66.3546944,157 L61.3218642,157 Z M66.3546944,144.501249 L69.0544246,144.501249 C70.2320905,144.501249 71.0486674,144.279052 71.5041797,143.834649 C71.959692,143.390247 72.1874448,142.656994 72.1874448,141.634869 L72.1874448,140.634969 C72.1874448,139.612844 71.959692,138.879591 71.5041797,138.435189 C71.0486674,137.990787 70.2320905,137.768589 69.0544246,137.768589 L66.3546944,137.768589 L66.3546944,144.501249 Z M81.7293481,153.16705 L85.6956184,153.16705 L85.6956184,143.634669 L81.7293481,143.634669 L81.7293481,139.801719 L90.6284586,139.801719 L90.6284586,144.667899 L90.8617686,144.667899 C91.0173094,144.045736 91.2339523,143.440247 91.5117037,142.851414 C91.7894551,142.262581 92.1449716,141.740416 92.5782637,141.284904 C93.0115559,140.829392 93.5392757,140.46832 94.1614388,140.201679 C94.783602,139.935038 95.5168547,139.801719 96.3612189,139.801719 L97.994389,139.801719 L97.994389,144.334599 L94.3280888,144.334599 C93.1059827,144.334599 92.1838618,144.695671 91.5616987,145.417824 C90.9395355,146.139978 90.6284586,147.023214 90.6284586,148.06756 L90.6284586,153.16705 L96.2945589,153.16705 L96.2945589,157 L81.7293481,157 L81.7293481,153.16705 Z M110.802633,137.601939 C109.691627,137.601939 108.91949,137.374186 108.486197,136.918674 C108.052905,136.463162 107.836262,135.913222 107.836262,135.268839 L107.836262,134.302269 C107.836262,133.635665 108.052905,133.080171 108.486197,132.635769 C108.91949,132.191366 109.691627,131.969169 110.802633,131.969169 C111.913638,131.969169 112.685776,132.191366 113.119068,132.635769 C113.55236,133.080171 113.769003,133.635665 113.769003,134.302269 L113.769003,135.268839 C113.769003,135.913222 113.55236,136.463162 113.119068,136.918674 C112.685776,137.374186 111.913638,137.601939 110.802633,137.601939 Z M102.870092,153.16705 L108.336212,153.16705 L108.336212,143.634669 L102.870092,143.634669 L102.870092,139.801719 L113.269053,139.801719 L113.269053,153.16705 L118.335213,153.16705 L118.335213,157 L102.870092,157 L102.870092,153.16705 Z M129.843587,157.39996 C127.888217,157.39996 126.188404,157.077773 124.744096,156.43339 C123.299789,155.789007 122.133251,154.911325 121.244446,153.80032 L124.144156,150.60064 C124.98852,151.533884 125.916196,152.222698 126.927211,152.6671 C127.938226,153.111502 128.965891,153.3337 130.010237,153.3337 C131.210123,153.3337 132.121134,153.067062 132.743297,152.53378 C133.36546,152.000497 133.676537,151.233915 133.676537,150.23401 C133.676537,149.411865 133.437674,148.789712 132.959942,148.36753 C132.482209,147.945347 131.676742,147.64538 130.543517,147.467619 L128.110426,147.067659 C126.021736,146.712138 124.510791,145.94 123.577546,144.751224 C122.644301,143.562448 122.177686,142.112608 122.177686,140.401659 C122.177686,138.157428 122.910939,136.41873 124.377466,135.185514 C125.843994,133.952298 127.899323,133.335699 130.543517,133.335699 C132.343346,133.335699 133.90984,133.613446 135.243047,134.168949 C136.576254,134.724452 137.653913,135.479924 138.476057,136.435389 L135.643007,139.601739 C135.020844,138.912916 134.287591,138.374086 133.443227,137.985234 C132.598862,137.596382 131.643412,137.401959 130.576847,137.401959 C128.332615,137.401959 127.210516,138.32408 127.210516,140.168349 C127.210516,140.968273 127.460489,141.568207 127.960441,141.968169 C128.460394,142.368131 129.276971,142.668098 130.410197,142.868079 L132.843287,143.301369 C134.731996,143.634671 136.187392,144.345704 137.209517,145.434489 C138.231642,146.523275 138.742697,147.98978 138.742697,149.83405 C138.742697,150.922835 138.553829,151.92828 138.176087,152.850415 C137.798345,153.772549 137.231741,154.572461 136.476257,155.250175 C135.720773,155.927888 134.793097,156.455608 133.693202,156.83335 C132.593306,157.211092 131.310114,157.39996 129.843587,157.39996 Z M151.150981,157.39996 C148.262366,157.39996 146.073718,156.600048 144.58497,155.0002 C143.096223,153.400352 142.35186,151.222813 142.35186,148.46752 C142.35186,147.067652 142.546283,145.80668 142.935135,144.684564 C143.323987,143.562449 143.879482,142.606998 144.601635,141.818184 C145.323789,141.02937 146.20147,140.429436 147.234705,140.018364 C148.267941,139.607292 149.428924,139.401759 150.717691,139.401759 C152.006457,139.401759 153.161886,139.607292 154.184011,140.018364 C155.206136,140.429436 156.072707,141.012705 156.783751,141.768189 C157.494794,142.523673 158.044734,143.440239 158.433586,144.517914 C158.822438,145.59559 159.016861,146.801013 159.016861,148.13422 L159.016861,149.60074 L147.25137,149.60074 L147.25137,149.90071 C147.25137,151.011715 147.595777,151.906061 148.2846,152.583775 C148.973424,153.261488 149.984424,153.60034 151.317631,153.60034 C152.339756,153.60034 153.217437,153.405917 153.950701,153.017065 C154.683964,152.628213 155.317228,152.111603 155.850511,151.46722 L158.516911,154.36693 C157.850308,155.189074 156.917077,155.900107 155.717191,156.50005 C154.517305,157.099993 152.99525,157.39996 151.150981,157.39996 Z M150.751021,142.934739 C149.684455,142.934739 148.834549,143.262481 148.201275,143.917974 C147.568002,144.573468 147.25137,145.456704 147.25137,146.567709 L147.25137,146.834349 L154.184011,146.834349 L154.184011,146.567709 C154.184011,145.434484 153.878489,144.545693 153.267436,143.901309 C152.656383,143.256926 151.817586,142.934739 150.751021,142.934739 Z M171.858435,157.39996 C170.503008,157.39996 169.286475,157.194427 168.208799,156.783355 C167.131124,156.372283 166.220113,155.777904 165.475739,155.0002 C164.731365,154.222496 164.159206,153.278155 163.759244,152.16715 C163.359282,151.056144 163.159304,149.800727 163.159304,148.40086 C163.159304,147.000992 163.359282,145.745575 163.759244,144.634569 C164.159206,143.523564 164.731365,142.579223 165.475739,141.801519 C166.220113,141.023815 167.131124,140.429436 168.208799,140.018364 C169.286475,139.607292 170.491898,139.401759 171.825105,139.401759 C173.713814,139.401759 175.230314,139.78505 176.37465,140.551644 C177.518986,141.318238 178.391112,142.334793 178.991055,143.601339 L175.191435,145.667799 C174.880353,145.001196 174.474842,144.445702 173.97489,144.001299 C173.474937,143.556897 172.758349,143.334699 171.825105,143.334699 C170.691879,143.334699 169.819752,143.662441 169.208699,144.317934 C168.597646,144.973428 168.292124,145.867774 168.292124,147.000999 L168.292124,149.80072 C168.292124,150.933945 168.597646,151.828291 169.208699,152.483785 C169.819752,153.139278 170.714099,153.46702 171.891765,153.46702 C172.847229,153.46702 173.597147,153.244822 174.14154,152.80042 C174.685932,152.356018 175.146993,151.778303 175.524735,151.06726 L179.257695,153.20038 C178.635532,154.466926 177.730076,155.483481 176.5413,156.250075 C175.352524,157.016669 173.791584,157.39996 171.858435,157.39996 Z" fill="#393A40"></path>
            <g id="Lock" transform="translate(54.000000, 0.000000)">
                <g id="Ring" transform="translate(8.857320, 0.000000)">
                    <rect id="Ring-Handle" fill="#393A40" x="0" y="0" width="53.7153602" height="82.2873604" rx="26.8576801"></rect>
                    <rect id="Ring-Cutout" fill="#FFFFFF" x="12.5716801" y="12.2859601" width="28.5720001" height="71.4300003" rx="14.2860001"></rect>
                </g>
                <rect id="Body" fill="#5D70F1" x="0" y="35.7150002" width="71.4300003" height="71.4300003" rx="11.4285717"></rect>
                <g id="Eye" transform="translate(18.000360, 53.715360)">
                    <ellipse id="Oval-5" fill="#FFFFFF" cx="17.8575001" cy="13.4288401" rx="17.8575001" ry="13.4288401"></ellipse>
                    <rect id="Rectangle-8" fill="#FFFFFF" x="11.7145201" y="11.9059519" width="11.9059519" height="23.8090482" rx="2.85714293"></rect>
                    <circle id="Oval-5" fill="#393A40" cx="17.7860701" cy="13.5002701" r="8.92875004"></circle>
                    <circle id="Oval-5" fill="#FFFFFF" cx="17.8575001" cy="13.5717001" r="3.57150002"></circle>
                </g>
            </g>
        </g>
    </g>
</svg>