<?xml version="1.0" encoding="UTF-8"?>
<svg width="325px" height="76px" viewBox="0 0 325 76" version="1.1" xmlns="http://www.w3.org/2000/svg" xmlns:xlink="http://www.w3.org/1999/xlink">
    <!-- Generator: Sketch 52.1 (67048) - http://www.bohemiancoding.com/sketch -->
    <title>75</title>
    <desc>Created with Sketch.</desc>
    <g id="Page-1" stroke="none" stroke-width="1" fill="none" fill-rule="evenodd">
        <g id="storyboard" transform="translate(-174.000000, -310.000000)">
            <g id="75" transform="translate(174.000000, 314.000000)">
                <g id="lock">
                    <path d="M11.25,27.1304348 L11.25,13.5 C11.25,6.04415588 17.2941559,1.36961635e-15 24.75,0 L24.75,0 C32.2058441,-1.36961635e-15 38.25,6.04415588 38.25,13.5 L38.25,27.1304348 L11.25,27.1304348 Z" id="upper" stroke="#283A81" stroke-width="6.75"></path>
                    <path d="M7.6916556,22.5 L41.8083444,22.5 C44.4829006,22.5 45.4527593,22.7784768 46.4305371,23.3013981 C47.4083149,23.8243194 48.1756806,24.5916851 48.6986019,25.5694629 C49.2215232,26.5472407 49.5,27.5170994 49.5,30.1916556 L49.5,64.3083444 C49.5,66.9829006 49.2215232,67.9527593 48.6986019,68.9305371 C48.1756806,69.9083149 47.4083149,70.6756806 46.4305371,71.1986019 C45.4527593,71.7215232 44.4829006,72 41.8083444,72 L7.6916556,72 C5.01709938,72 4.04724067,71.7215232 3.06946289,71.1986019 C2.09168511,70.6756806 1.32431939,69.9083149 0.801398111,68.9305371 C0.278476833,67.9527593 1.2037061e-16,66.9829006 -2.07168062e-16,64.3083444 L2.07168062e-16,30.1916556 C-1.2037061e-16,27.5170994 0.278476833,26.5472407 0.801398111,25.5694629 C1.32431939,24.5916851 2.09168511,23.8243194 3.06946289,23.3013981 C4.04724067,22.7784768 5.01709938,22.5 7.6916556,22.5 Z" id="body" fill="#3F5BC8"></path>
                    <g id="eye" transform="translate(9.000000, 36.000000)" fill="#8FA1E4">
                        <path d="M15.7499994,22.7093023 C20.3789508,22.7093023 25.3915426,19.5416593 30.787775,13.2063734 L30.7877741,13.2063726 C31.7209084,12.1108542 31.7171506,10.4989353 30.7789188,9.40777936 C25.3860582,3.13592645 20.3764184,0 15.7499994,0 C11.1235784,0 6.11393621,3.13592923 0.721072825,9.40778769 L0.721080518,9.40779431 C-0.21714807,10.4989469 -0.220905578,12.1108606 0.712225702,13.2063755 C6.10845735,19.5416601 11.1210486,22.7093023 15.7499994,22.7093023 Z" id="outer"></path>
                        <circle id="pupil" stroke="#FFFFFF" stroke-width="2.92108235" cx="15.75" cy="11.3546512" r="6.22674419"></circle>
                    </g>
                </g>
                <path d="M84.186,25.564 C82.585992,25.564 81.4740031,25.2360033 80.85,24.58 C80.2259969,23.9239967 79.914,23.1320046 79.914,22.204 L79.914,20.812 C79.914,19.8519952 80.2259969,19.0520032 80.85,18.412 C81.4740031,17.7719968 82.585992,17.452 84.186,17.452 C85.786008,17.452 86.8979969,17.7719968 87.522,18.412 C88.1460031,19.0520032 88.458,19.8519952 88.458,20.812 L88.458,22.204 C88.458,23.1320046 88.1460031,23.9239967 87.522,24.58 C86.8979969,25.2360033 85.786008,25.564 84.186,25.564 Z M72.762,47.98 L80.634,47.98 L80.634,34.252 L72.762,34.252 L72.762,28.732 L87.738,28.732 L87.738,47.98 L95.034,47.98 L95.034,53.5 L72.762,53.5 L72.762,47.98 Z M111.45,54.076 C106.969978,54.076 103.666011,52.5560152 101.538,49.516 C99.4099894,46.4759848 98.346,42.2200274 98.346,36.748 C98.346,31.2759726 99.4099894,27.0200152 101.538,23.98 C103.666011,20.9399848 106.969978,19.42 111.45,19.42 C115.930022,19.42 119.233989,20.9399848 121.362,23.98 C123.490011,27.0200152 124.554,31.2759726 124.554,36.748 C124.554,42.2200274 123.490011,46.4759848 121.362,49.516 C119.233989,52.5560152 115.930022,54.076 111.45,54.076 Z M111.45,48.268 C113.49801,48.268 114.913996,47.5080076 115.698,45.988 C116.482004,44.4679924 116.874,42.3480136 116.874,39.628 L116.874,33.82 C116.874,31.1319866 116.482004,29.0280076 115.698,27.508 C114.913996,25.9879924 113.49801,25.228 111.45,25.228 C109.40199,25.228 107.986004,25.9879924 107.202,27.508 C106.417996,29.0280076 106.026,31.1319866 106.026,33.82 L106.026,39.676 C106.026,42.3640134 106.417996,44.4679924 107.202,45.988 C107.986004,47.5080076 109.40199,48.268 111.45,48.268 Z M139.722,54.076 C136.905986,54.076 134.45801,53.6120046 132.378,52.684 C130.29799,51.7559954 128.618006,50.492008 127.338,48.892 L131.514,44.284 C132.730006,45.6280067 134.065993,46.6199968 135.522,47.26 C136.978007,47.9000032 138.457992,48.22 139.962,48.22 C141.690009,48.22 143.001996,47.8360038 143.898,47.068 C144.794004,46.2999962 145.242,45.1960072 145.242,43.756 C145.242,42.5719941 144.898003,41.676003 144.21,41.068 C143.521997,40.459997 142.362008,40.0280013 140.73,39.772 L137.226,39.196 C134.217985,38.6839974 132.042007,37.5720086 130.698,35.86 C129.353993,34.1479914 128.682,32.0600123 128.682,29.596 C128.682,26.3639838 129.737989,23.8600089 131.85,22.084 C133.962011,20.3079911 136.921981,19.42 140.73,19.42 C143.322013,19.42 145.57799,19.819996 147.498,20.62 C149.41801,21.420004 150.969994,22.5079931 152.154,23.884 L148.074,28.444 C147.177996,27.451995 146.122006,26.6760028 144.906,26.116 C143.689994,25.5559972 142.314008,25.276 140.778,25.276 C137.545984,25.276 135.93,26.6039867 135.93,29.26 C135.93,30.4120058 136.289996,31.2759971 137.01,31.852 C137.730004,32.4280029 138.905992,32.8599986 140.538,33.148 L144.042,33.772 C146.762014,34.2520024 148.857993,35.2759922 150.33,36.844 C151.802007,38.4120078 152.538,40.5239867 152.538,43.18 C152.538,44.7480078 152.266003,46.1959934 151.722,47.524 C151.177997,48.8520066 150.362005,50.0039951 149.274,50.98 C148.185995,51.9560049 146.850008,52.7159973 145.266,53.26 C143.681992,53.8040027 141.834011,54.076 139.722,54.076 Z M158.298,53.5 L158.298,19.996 L171.258,19.996 C172.890008,19.996 174.345994,20.2439975 175.626,20.74 C176.906006,21.2360025 177.985996,21.9479954 178.866,22.876 C179.746004,23.8040046 180.409998,24.9239934 180.858,26.236 C181.306002,27.5480066 181.53,29.0199918 181.53,30.652 C181.53,32.2840082 181.306002,33.7559934 180.858,35.068 C180.409998,36.3800066 179.746004,37.4999954 178.866,38.428 C177.985996,39.3560046 176.906006,40.0679975 175.626,40.564 C174.345994,41.0600025 172.890008,41.308 171.258,41.308 L165.546,41.308 L165.546,53.5 L158.298,53.5 Z M165.546,35.5 L169.434,35.5 C171.130008,35.5 172.305997,35.1800032 172.962,34.54 C173.618003,33.8999968 173.946,32.8440074 173.946,31.372 L173.946,29.932 C173.946,28.4599926 173.618003,27.4040032 172.962,26.764 C172.305997,26.1239968 171.130008,25.804 169.434,25.804 L165.546,25.804 L165.546,35.5 Z M187.002,47.98 L192.714,47.98 L192.714,34.252 L187.002,34.252 L187.002,28.732 L199.818,28.732 L199.818,35.74 L200.154,35.74 C200.378001,34.8439955 200.689998,33.9720042 201.09,33.124 C201.490002,32.2759958 202.001997,31.5240033 202.626,30.868 C203.250003,30.2119967 204.009996,29.6920019 204.906,29.308 C205.802004,28.9239981 206.857994,28.732 208.074,28.732 L210.426,28.732 L210.426,35.26 L205.146,35.26 C203.385991,35.26 202.058004,35.7799948 201.162,36.82 C200.265996,37.8600052 199.818,39.1319925 199.818,40.636 L199.818,47.98 L207.978,47.98 L207.978,53.5 L187.002,53.5 L187.002,47.98 Z M228.186,25.564 C226.585992,25.564 225.474003,25.2360033 224.85,24.58 C224.225997,23.9239967 223.914,23.1320046 223.914,22.204 L223.914,20.812 C223.914,19.8519952 224.225997,19.0520032 224.85,18.412 C225.474003,17.7719968 226.585992,17.452 228.186,17.452 C229.786008,17.452 230.897997,17.7719968 231.522,18.412 C232.146003,19.0520032 232.458,19.8519952 232.458,20.812 L232.458,22.204 C232.458,23.1320046 232.146003,23.9239967 231.522,24.58 C230.897997,25.2360033 229.786008,25.564 228.186,25.564 Z M216.762,47.98 L224.634,47.98 L224.634,34.252 L216.762,34.252 L216.762,28.732 L231.738,28.732 L231.738,47.98 L239.034,47.98 L239.034,53.5 L216.762,53.5 L216.762,47.98 Z M254.922,54.076 C252.105986,54.076 249.65801,53.6120046 247.578,52.684 C245.49799,51.7559954 243.818006,50.492008 242.538,48.892 L246.714,44.284 C247.930006,45.6280067 249.265993,46.6199968 250.722,47.26 C252.178007,47.9000032 253.657992,48.22 255.162,48.22 C256.890009,48.22 258.201996,47.8360038 259.098,47.068 C259.994004,46.2999962 260.442,45.1960072 260.442,43.756 C260.442,42.5719941 260.098003,41.676003 259.41,41.068 C258.721997,40.459997 257.562008,40.0280013 255.93,39.772 L252.426,39.196 C249.417985,38.6839974 247.242007,37.5720086 245.898,35.86 C244.553993,34.1479914 243.882,32.0600123 243.882,29.596 C243.882,26.3639838 244.937989,23.8600089 247.05,22.084 C249.162011,20.3079911 252.121981,19.42 255.93,19.42 C258.522013,19.42 260.77799,19.819996 262.698,20.62 C264.61801,21.420004 266.169994,22.5079931 267.354,23.884 L263.274,28.444 C262.377996,27.451995 261.322006,26.6760028 260.106,26.116 C258.889994,25.5559972 257.514008,25.276 255.978,25.276 C252.745984,25.276 251.13,26.6039867 251.13,29.26 C251.13,30.4120058 251.489996,31.2759971 252.21,31.852 C252.930004,32.4280029 254.105992,32.8599986 255.738,33.148 L259.242,33.772 C261.962014,34.2520024 264.057993,35.2759922 265.53,36.844 C267.002007,38.4120078 267.738,40.5239867 267.738,43.18 C267.738,44.7480078 267.466003,46.1959934 266.922,47.524 C266.377997,48.8520066 265.562005,50.0039951 264.474,50.98 C263.385995,51.9560049 262.050008,52.7159973 260.466,53.26 C258.881992,53.8040027 257.034011,54.076 254.922,54.076 Z M284.922,54.076 C280.761979,54.076 277.610011,52.9240115 275.466,50.62 C273.321989,48.3159885 272.25,45.1800198 272.25,41.212 C272.25,39.1959899 272.529997,37.3800081 273.09,35.764 C273.650003,34.1479919 274.449995,32.7720057 275.49,31.636 C276.530005,30.4999943 277.793993,29.636003 279.282,29.044 C280.770007,28.451997 282.441991,28.156 284.298,28.156 C286.154009,28.156 287.817993,28.451997 289.29,29.044 C290.762007,29.636003 292.009995,30.4759946 293.034,31.564 C294.058005,32.6520054 294.849997,33.9719922 295.41,35.524 C295.970003,37.0760078 296.25,38.8119904 296.25,40.732 L296.25,42.844 L279.306,42.844 L279.306,43.276 C279.306,44.876008 279.801995,46.1639951 280.794,47.14 C281.786005,48.1160049 283.24199,48.604 285.162,48.604 C286.634007,48.604 287.897995,48.3240028 288.954,47.764 C290.010005,47.2039972 290.921996,46.4600046 291.69,45.532 L295.53,49.708 C294.569995,50.8920059 293.226009,51.9159957 291.498,52.78 C289.769991,53.6440043 287.578013,54.076 284.922,54.076 Z M284.346,33.244 C282.809992,33.244 281.586005,33.7159953 280.674,34.66 C279.761995,35.6040047 279.306,36.875992 279.306,38.476 L279.306,38.86 L289.29,38.86 L289.29,38.476 C289.29,36.8439918 288.850004,35.5640046 287.97,34.636 C287.089996,33.7079954 285.882008,33.244 284.346,33.244 Z M314.058,54.076 C312.10599,54.076 310.354008,53.780003 308.802,53.188 C307.249992,52.595997 305.938005,51.7400056 304.866,50.62 C303.793995,49.4999944 302.970003,48.140008 302.394,46.54 C301.817997,44.939992 301.53,43.1320101 301.53,41.116 C301.53,39.0999899 301.817997,37.292008 302.394,35.692 C302.970003,34.091992 303.793995,32.7320056 304.866,31.612 C305.938005,30.4919944 307.249992,29.636003 308.802,29.044 C310.354008,28.451997 312.08999,28.156 314.01,28.156 C316.730014,28.156 318.913992,28.7079945 320.562,29.812 C322.210008,30.9160055 323.465996,32.3799909 324.33,34.204 L318.858,37.18 C318.409998,36.2199952 317.826004,35.4200032 317.106,34.78 C316.385996,34.1399968 315.354007,33.82 314.01,33.82 C312.377992,33.82 311.122004,34.2919953 310.242,35.236 C309.361996,36.1800047 308.922,37.4679918 308.922,39.1 L308.922,43.132 C308.922,44.7640082 309.361996,46.0519953 310.242,46.996 C311.122004,47.9400047 312.409992,48.412 314.106,48.412 C315.482007,48.412 316.561996,48.0920032 317.346,47.452 C318.130004,46.8119968 318.793997,45.9800051 319.338,44.956 L324.714,48.028 C323.817996,49.8520091 322.514009,51.3159945 320.802,52.42 C319.089991,53.5240055 316.842014,54.076 314.058,54.076 Z" id="iOSPriSec" fill="#162047"></path>
            </g>
        </g>
    </g>
</svg>